<svg xmlns="http://www.w3.org/2000/svg" width="6.948" height="11.783" viewBox="0 0 6.948 11.783">
  <path id="ic_back" d="M.551,10.959a.839.839,0,0,1,.067-.079q2.654-2.654,5.3-5.308c.024-.024.052-.046.079-.07V5.452c-.034-.028-.067-.055-.1-.086Q3.262,2.726.625.083c-.11-.11-.11-.11-.22,0S.163.327.038.446c-.049.046-.052.086,0,.128C.062.6.084.62.105.642L4.833,5.378c.031.031.061.061.095.1-.037.04-.067.073-.1.107L.4,10.024c-.138.138-.266.284-.4.425.131.138.263.278.394.416.031.031.058.064.086.1A.541.541,0,0,1,.551,10.959Z" transform="translate(0.548 0.397)" fill="#fff" stroke="#fff" stroke-width="0.8"/>
</svg>
